<svg 
    width="699" 
    height="245" 
    viewBox="0 0 699 245"
    fill="none"
    xmlns="http://www.w3.org/2000/svg"
>
    <path 
        d="M569.528 45.3657C490.283 29.3314 409.084 28.004 328.323 27.6375C267.352 27.3609 204.298 23.1291 143.953 33.4375C114.255 38.5108 89.3178 43.4323 62.8581 58.2788C43.7862 68.98 16.8601 84.0758 7.40848 104.46C-11.2276 144.651 51.171 183.365 82.843 195.289C159.988 224.334 240.933 231.501 323.24 235.56C408.62 239.771 494.854 242.344 580.387 240.266C599.102 239.811 617.638 232.936 634.797 226.368C651.019 220.159 672.041 212.318 683.893 199.447C699.849 182.121 697.792 154.288 682.969 136.086C667.503 117.094 642.544 105.469 624.516 88.5917C592.388 58.5151 550.404 45.6038 508.303 32.4526C474.029 21.7464 441.259 11.3269 405.144 7.39242C378.163 4.45309 351.266 4 324.164 4"
        stroke="#244DB7"
        stroke-width="10" 
        stroke-linecap="round"/>
</svg>
